<svg id="Layer_1" data-name="Layer 1" xmlns="http://www.w3.org/2000/svg" viewBox="0 0 510.79 300.03"><defs><style>.cls-1{fill:#fff;}.cls-2,.cls-3{fill:none;stroke:#fff;stroke-miterlimit:10;}.cls-2{stroke-width:16px;}.cls-3{stroke-linecap:round;stroke-width:13px;}</style></defs><title>11cloud</title><path class="cls-1" d="M199,429.82a90.9,90.9,0,0,1,20.51,2.51c6.47,2.51,23.21,10.67,29.53,21l6.14,10.39,11.63-3.27a67.28,67.28,0,0,1,14.86-1.57c28,0,46.06,15.11,53.81,44.92a60.17,60.17,0,0,1,.29,19.44,51,51,0,0,1-21.42,35.33l-1.1.68-1.07,1.19c-.73.69-6.54,6-17.18,9.88H134.51a51.07,51.07,0,0,1-19.21-8.94C103,552,96.71,537.49,96.67,518.2a34.61,34.61,0,0,1,4.4-13.71c5.54-10,15.28-17.69,29-22.85l7-2.67,2.44-7.12a74.23,74.23,0,0,1,13-21.06c12.21-13.91,27.85-21,46.5-21h0m0-16c-56.54,0-74.63,52.85-74.63,52.85C80.67,483.17,80.67,518,80.67,518c0,61,52.36,68.33,52.36,68.33H297.7c17.33-5.66,26-14.76,26-14.76C361.7,544.23,351,500,351,500c-12.61-48.89-47.39-57.11-69.35-57.11a80.43,80.43,0,0,0-19,2.11c-11-18-38.5-28-38.5-28a107.1,107.1,0,0,0-25.2-3.18Z" transform="translate(-80.67 -286.3)"/><path class="cls-2" d="M197.41,419.28C211.88,397,244.77,364,307.58,379c0,0,32.94,11.77,46.11,33,0,0,83.05-22,105.81,64.75,0,0,14.68,53.38-30.84,85.55a80,80,0,0,1-33,16.09H198.38" transform="translate(-80.67 -286.3)"/><path class="cls-2" d="M392,413a55.3,55.3,0,0,1,49.59-30.23c30.47,0,55.17,24.11,55.17,53.86,0,24.48-16.74,45.15-39.66,51.69" transform="translate(-80.67 -286.3)"/><line class="cls-3" x1="361" y1="6.5" x2="361" y2="60.5"/><line class="cls-3" x1="462.38" y1="48.71" x2="423.25" y2="85.93"/><line class="cls-3" x1="504.29" y1="149.5" x2="450.29" y2="149.02"/></svg>